<svg version="1.2" baseProfile="tiny-ps" xmlns="http://www.w3.org/2000/svg" viewBox="0 0 48 55" width="48" height="55">
	<title>services</title>
	<style>
		tspan { white-space:pre }
		.shp0 { fill: #000000 } 
	</style>
	<g id="services">
		<g id="marketing">
			<path id="Forma 1" class="shp0" d="M47.69 38.05C47.37 38.53 46.84 38.8 46.23 38.8C45.53 38.8 44.83 38.42 44.47 38.19L44.25 38.02C44.21 37.98 39.65 33.88 31.38 33.88C28.28 33.88 25.02 34.46 21.69 35.58C21.58 35.62 21.17 35.75 20.63 35.75C19.33 35.75 18.3 35 17.88 33.75L13.82 21.76C13.66 21.4 13.36 20.55 13.72 19.62C13.93 19.07 14.43 18.34 15.63 17.93C15.85 17.87 29.04 14.12 31.96 2.46C32.35 1.3 33.03 0.07 34.28 0.07C34.78 0.07 35.69 0.27 36.16 1.68L40.22 13.69C42.29 14.33 43.93 15.91 44.62 17.97C45.32 20.02 44.97 22.27 43.72 24.02L47.77 36.02C47.87 36.26 48.26 37.21 47.69 38.05ZM31.38 30.92C27.96 30.92 24.38 31.54 20.69 32.81L16.61 20.74C18.02 20.33 30.23 16.51 34.22 5.22L37.96 16.26L40.36 23.36L44.05 34.25C41.65 32.81 37.38 30.92 31.38 30.92ZM18.66 48.79C23 53.18 17.57 54.13 17.57 54.13C15.81 54.73 15.49 52.87 15.49 52.87L11.79 41.91C11 39.08 9.24 39.6 9.24 39.6C4.78 41.11 3.15 35.99 3.15 35.99L1.1 29.93C-0.39 25.52 4.1 23.78 4.1 23.78L9.86 21.83C11.72 21.2 12 22.96 12 22.96L16.65 36.99C17.04 38.17 16.25 40.72 16.25 40.72C16.25 44.36 19.92 46.14 18.66 48.79ZM34.59 13.21C33.79 19.47 25.58 21.78 25.23 21.88C25.12 21.9 25.02 21.92 24.92 21.92C24.4 21.92 23.93 21.57 23.79 21.05C23.62 20.43 23.98 19.78 24.61 19.61C24.68 19.59 31.66 17.62 32.26 12.91C32.34 12.27 32.94 11.82 33.57 11.9C34.21 11.98 34.66 12.56 34.59 13.21Z" />
		</g>
	</g>
</svg>